<?xml version="1.0" encoding="UTF-8" standalone="no"?>
<svg
   width="166"
   height="166"
   viewBox="0 0 166 166"
   fill="none"
   version="1.1"
   id="svg502"
   sodipodi:docname="favicon.svg"
   inkscape:version="1.2.2 (b0a8486541, 2022-12-01)"
   xmlns:inkscape="http://www.inkscape.org/namespaces/inkscape"
   xmlns:sodipodi="http://sodipodi.sourceforge.net/DTD/sodipodi-0.dtd"
   xmlns="http://www.w3.org/2000/svg"
   xmlns:svg="http://www.w3.org/2000/svg">
  <defs
     id="defs506" />
  <sodipodi:namedview
     id="namedview504"
     pagecolor="#ffffff"
     bordercolor="#999999"
     borderopacity="1"
     inkscape:showpageshadow="2"
     inkscape:pageopacity="0"
     inkscape:pagecheckerboard="0"
     inkscape:deskcolor="#d1d1d1"
     showgrid="false"
     inkscape:zoom="4.7289157"
     inkscape:cx="77.607643"
     inkscape:cy="83.211465"
     inkscape:window-width="1920"
     inkscape:window-height="1011"
     inkscape:window-x="0"
     inkscape:window-y="0"
     inkscape:window-maximized="1"
     inkscape:current-layer="svg502" />
  <path
     style="color:#000000;fill:#00b8db;fill-opacity:1;stroke-width:4.57096;stroke-linecap:round;stroke-linejoin:round;-inkscape-stroke:none"
     d="m 82.996201,1.4107251 c -6.911012,0 -11.641042,2.840082 -16.91789,6.615384 -5.27686,3.7753029 -10.480116,8.9482029 -14.471724,15.5430349 -7.983216,13.189661 -9.267464,33.749621 6.436831,50.762602 a 9.9785248,9.9785248 0 0 0 0.464239,0.464236 c 5.336919,5.066333 11.595907,11.134799 14.918101,16.819709 3.322194,5.68484 4.277582,9.206489 0.92848,15.007359 a 9.9775274,9.9775274 0 0 0 3.660329,13.63251 9.9775274,9.9775274 0 0 0 13.623596,-3.65142 c 7.05209,-12.2146 4.47374,-25.714089 -0.98204,-35.049927 C 85.317593,72.419007 77.83346,65.623203 72.640121,60.708157 62.008189,49.136974 64.005281,41.62461 68.676244,33.90736 c 2.341928,-3.869272 5.817183,-7.367927 9.008,-9.65079 0.149603,-0.107007 0.09941,-0.03429 0.249983,-0.133929 12.017966,26.911436 28.832413,36.162034 36.558703,43.88831 a 9.9785248,9.9785248 0 0 0 0.0715,0.07144 c 8.48374,8.313407 13.32994,19.63093 13.51646,31.50569 -0.026,24.998639 -20.07553,45.048909 -45.084621,45.048909 -25.03472,0 -45.107906,-20.0856 -45.093538,-45.120349 a 9.9785248,9.9785248 0 0 0 0,-0.01 c 0,-3.30444 0.118763,-5.34679 0.589219,-6.75826 A 9.9775274,9.9775274 0 0 0 32.180078,80.125028 9.9775274,9.9775274 0 0 0 19.565326,86.436871 c -1.731303,5.19401 -1.616071,9.75725 -1.615914,13.06118 -0.02056,35.823249 29.223568,65.091449 65.046837,65.091449 35.823271,0 65.077281,-29.26787 65.055751,-65.091449 a 9.9785248,9.9785248 0 0 0 0,-0.13393 C 147.80785,82.224749 140.79704,65.865469 128.56293,53.860426 115.21318,40.535058 102.6304,38.71714 92.468463,8.2312221 a 9.9785248,9.9785248 0 0 0 -9.472238,-6.820721 z"
     id="path271-6-74" />
</svg>
