<?xml version="1.0" encoding="UTF-8" standalone="no"?>
<!-- Created with Inkscape (http://www.inkscape.org/) -->

<svg
   width="150"
   height="46"
   viewBox="0 0 39.687499 12.170833"
   version="1.1"
   id="svg297"
   inkscape:version="1.2.2 (b0a8486541, 2022-12-01)"
   sodipodi:docname="visa.svg"
   xmlns:inkscape="http://www.inkscape.org/namespaces/inkscape"
   xmlns:sodipodi="http://sodipodi.sourceforge.net/DTD/sodipodi-0.dtd"
   xmlns="http://www.w3.org/2000/svg"
   xmlns:svg="http://www.w3.org/2000/svg"
   xmlns:sketch="http://www.bohemiancoding.com/sketch/ns">
  <sodipodi:namedview
     id="namedview299"
     pagecolor="#ffffff"
     bordercolor="#000000"
     borderopacity="0.25"
     inkscape:showpageshadow="2"
     inkscape:pageopacity="0.0"
     inkscape:pagecheckerboard="0"
     inkscape:deskcolor="#d1d1d1"
     inkscape:document-units="mm"
     showgrid="false"
     inkscape:zoom="3.955949"
     inkscape:cx="101.11354"
     inkscape:cy="8.4682589"
     inkscape:window-width="1920"
     inkscape:window-height="1011"
     inkscape:window-x="0"
     inkscape:window-y="0"
     inkscape:window-maximized="1"
     inkscape:current-layer="layer1" />
  <defs
     id="defs294" />
  <g
     inkscape:label="Layer 1"
     inkscape:groupmode="layer"
     id="layer1">
    <g
       id="visa"
       sketch:type="MSLayerGroup"
       transform="matrix(0.06016852,0,0,0.06016852,-2.719453,-8.0842698)">

<path
   id="Shape"
   sketch:type="MSShapeGroup"
   fill="#0e4595"
   d="m 278.198,334.228 33.36,-195.763 h 53.358 l -33.384,195.763 z" />


<path
   id="path13"
   sketch:type="MSShapeGroup"
   fill="#0e4595"
   d="m 524.307,142.687 c -10.57,-3.966 -27.135,-8.222 -47.822,-8.222 -52.725,0 -89.863,26.551 -90.18,64.604 -0.297,28.129 26.514,43.821 46.754,53.185 20.77,9.597 27.752,15.716 27.652,24.283 -0.133,13.123 -16.586,19.116 -31.924,19.116 -21.355,0 -32.701,-2.967 -50.225,-10.274 l -6.877,-3.112 -7.488,43.823 c 12.463,5.466 35.508,10.199 59.438,10.445 56.09,0 92.502,-26.248 92.916,-66.884 0.199,-22.27 -14.016,-39.216 -44.801,-53.188 -18.65,-9.056 -30.072,-15.099 -29.951,-24.269 0,-8.137 9.668,-16.838 30.559,-16.838 17.447,-0.271 30.088,3.534 39.936,7.5 l 4.781,2.259 7.232,-42.428" />


<path
   id="Path"
   sketch:type="MSShapeGroup"
   fill="#0e4595"
   d="m 661.615,138.464 h -41.23 c -12.773,0 -22.332,3.486 -27.941,16.234 L 513.2,334.1 h 56.031 c 0,0 9.16,-24.121 11.232,-29.418 6.123,0 60.555,0.084 68.336,0.084 1.596,6.854 6.492,29.334 6.492,29.334 h 49.512 z m -65.417,126.408 c 4.414,-11.279 21.26,-54.724 21.26,-54.724 -0.314,0.521 4.381,-11.334 7.074,-18.684 l 3.607,16.878 c 0,0 10.217,46.729 12.352,56.527 h -44.293 z" />


<path
   d="m 45.878906,138.46484 -0.68164,4.07227 c 21.092962,5.106 39.932007,12.49619 56.425784,21.68945 l 47.3457,169.6875 56.45508,-0.0625 84.0039,-195.38672 h -56.52539 l -52.23828,133.4961 -5.56445,-27.13086 c -0.26068,-0.83823 -0.54407,-1.67793 -0.83399,-2.51953 l -18.16015,-87.31836 c -3.229,-12.396 -12.59655,-16.09535 -24.18555,-16.52735 z"
   id="path16"
   style="fill:#0e4595;fill-opacity:1" />


</g>
  </g>
</svg>
